<?xml version="1.0" encoding="UTF-8" standalone="no"?>
<!DOCTYPE svg PUBLIC "-//W3C//DTD SVG 1.1//EN" "http://www.w3.org/Graphics/SVG/1.1/DTD/svg11.dtd">
<svg width="100%" height="100%" viewBox="0 0 944 334" version="1.1" xmlns="http://www.w3.org/2000/svg" xmlns:xlink="http://www.w3.org/1999/xlink" xml:space="preserve" xmlns:serif="http://www.serif.com/" style="fill-rule:evenodd;clip-rule:evenodd;stroke-linejoin:round;stroke-miterlimit:2;">
    <path d="M464.04,105.318C446.556,105.318 432.884,110.823 423.011,121.831C413.13,132.845 408.199,147.139 408.199,164.738C408.199,185.401 413.246,201.065 423.341,211.734C433.454,222.402 446.732,227.73 463.193,227.73C472.046,227.73 479.903,226.967 486.768,225.433C493.64,223.905 498.208,222.338 500.481,220.751L501.163,167.473C501.163,164.377 492.991,162.969 483.826,162.813C474.66,162.671 464.17,164.582 464.17,164.582L464.17,182.473L474.718,182.473L474.601,190.447C474.601,193.402 471.672,194.885 465.832,194.885C459.983,194.885 454.818,192.41 450.337,187.471C445.846,182.526 443.612,175.297 443.612,165.772C443.612,156.228 445.795,149.192 450.165,144.651C454.526,140.115 460.244,137.838 467.276,137.838C470.23,137.838 473.289,138.315 476.469,139.288C479.651,140.251 481.775,141.154 482.86,142.001C483.935,142.871 484.958,143.284 485.924,143.284C486.886,143.284 488.445,142.157 490.6,139.881C492.758,137.612 494.691,134.172 496.397,129.586C498.095,124.976 498.946,121.442 498.946,118.936C498.946,116.449 498.89,114.735 498.78,113.831C496.395,111.222 491.995,109.152 485.577,107.614C479.17,106.08 471.987,105.319 464.042,105.319L464.04,105.318ZM568.499,105.318C552.436,105.318 539.323,110.483 529.165,120.805C519.01,131.139 513.933,146.317 513.933,166.361C513.933,186.394 518.954,201.633 528.989,212.075C539.039,222.51 552.04,227.727 567.985,227.727C583.937,227.727 596.955,222.711 607.061,212.677C617.168,202.621 622.217,187.297 622.217,166.694C622.217,146.107 617.282,130.715 607.397,120.561C597.53,110.387 584.559,105.317 568.499,105.317L568.499,105.318ZM794.312,105.318C778.244,105.318 765.139,110.483 754.972,120.805C744.818,131.139 739.741,146.317 739.741,166.361C739.741,186.394 744.763,201.633 754.812,212.075C764.853,222.51 777.845,227.727 793.796,227.727C809.741,227.727 822.769,222.711 832.872,212.677C842.978,202.621 848.028,187.297 848.028,166.694C848.028,146.107 843.093,130.715 833.216,120.561C823.337,110.387 810.375,105.317 794.312,105.317L794.312,105.318ZM644.912,106.841C642.635,106.841 640.793,107.672 639.377,109.308C637.952,110.97 637.246,113.211 637.246,116.05L637.246,218.198C637.246,223.424 640.146,226.028 645.931,226.028L675.039,226.028C710.682,226.028 728.51,205.147 728.51,163.374C728.51,143.847 723.824,129.552 714.451,120.474C705.095,111.392 691.39,106.84 673.346,106.84L644.912,106.841ZM857.339,106.841C855.407,106.841 854.045,109.464 853.253,114.685C852.912,117.181 852.749,119.741 852.749,122.341C852.749,124.956 852.912,127.506 853.253,129.998C854.045,135.232 855.407,137.837 857.339,137.837L877.767,137.837L877.767,223.316C877.767,225.572 883.394,226.717 894.627,226.717C905.869,226.717 911.483,225.572 911.483,223.316L911.483,137.837L931.404,137.837C933.333,137.837 934.69,135.232 935.494,129.998C935.827,127.506 936,124.956 936,122.341C936,119.741 935.827,117.181 935.494,114.685C934.69,109.464 933.333,106.841 931.404,106.841L857.339,106.841ZM568.059,138.009C573.512,138.009 578.081,140.448 581.765,145.322C585.454,150.202 587.304,157.191 587.304,166.269C587.304,175.355 585.513,182.334 581.937,187.21C578.362,192.104 573.705,194.542 567.975,194.542C562.241,194.542 557.62,192.132 554.101,187.296C550.577,182.474 548.818,175.556 548.818,166.518C548.818,157.5 550.668,150.492 554.349,145.498C558.05,140.51 562.613,138.008 568.059,138.008L568.059,138.009ZM793.872,138.009C799.325,138.009 803.889,140.448 807.579,145.322C811.267,150.202 813.114,157.191 813.114,166.269C813.114,175.355 811.324,182.334 807.747,187.21C804.176,192.104 799.516,194.542 793.784,194.542C788.05,194.542 783.425,192.132 779.911,187.296C776.397,182.474 774.633,175.556 774.633,166.518C774.633,157.5 776.475,150.492 780.155,145.498C783.85,140.51 788.424,138.008 793.872,138.008L793.872,138.009ZM669.927,139.189L671.63,139.189C678.894,139.189 684.203,140.85 687.555,144.142C690.891,147.425 692.569,154.493 692.569,165.339C692.569,176.181 690.965,183.921 687.721,188.57C684.485,193.224 679.752,195.558 673.502,195.558C671.804,195.558 670.78,195.245 670.442,194.619C670.101,193.99 669.926,192.491 669.926,190.113L669.927,139.189Z" style="fill:rgb(71,140,191);fill-rule:nonzero;"/>
    <path d="M323.64,224.025C323.64,224.025 323.15,221.017 322.863,221.045L268.298,226.309C263.956,226.728 260.584,230.191 260.28,234.542L258.781,256.027L216.567,259.039L213.696,239.567C213.056,235.235 209.274,231.971 204.896,231.971L147.306,231.971C142.929,231.971 139.147,235.235 138.507,239.567L135.635,259.039L93.421,256.027L91.922,234.542C91.618,230.189 88.245,226.727 83.904,226.308L29.312,221.044C29.03,221.017 28.823,224.027 28.541,224.027L28.467,235.836L74.702,243.291L76.216,264.969C76.522,269.357 80.063,272.906 84.455,273.221L142.592,277.368C142.812,277.383 143.029,277.392 143.246,277.392C147.615,277.392 151.392,274.126 152.031,269.795L154.985,249.759L197.219,249.759L200.173,269.795C200.811,274.124 204.592,277.391 208.966,277.391C209.181,277.391 209.395,277.383 209.604,277.368L267.75,273.221C272.14,272.906 275.682,269.357 275.988,264.969L277.501,243.291L323.715,235.802L323.64,224.025Z" style="fill:white;fill-rule:nonzero;"/>
    <g>
        <path d="M141.91,7.998C126.552,11.412 111.359,16.164 97.115,23.334C97.441,35.911 98.254,47.962 99.902,60.203C94.371,63.747 88.557,66.789 83.39,70.937C78.141,74.975 72.778,78.841 68.025,83.564C58.529,77.283 48.479,71.38 38.125,66.169C26.964,78.181 16.527,91.146 8.002,105.653C14.416,116.029 21.112,125.754 28.342,134.983L28.543,134.983L28.543,224.022C28.706,224.023 28.87,224.03 29.032,224.045L83.618,229.307C86.477,229.583 88.717,231.885 88.916,234.75L90.6,258.846L138.215,262.245L141.494,240.005C141.92,237.121 144.394,234.985 147.311,234.985L204.901,234.985C207.816,234.985 210.29,237.121 210.715,240.005L213.994,262.245L261.611,258.846L263.293,234.75C263.494,231.885 265.732,229.584 268.592,229.307L323.156,224.045C323.317,224.03 323.479,224.023 323.642,224.022L323.642,216.916L323.665,216.909L323.665,134.983L323.867,134.983C331.098,125.754 337.79,116.028 344.207,105.653C335.685,91.145 325.243,78.18 314.082,66.169C303.731,71.379 293.676,77.282 284.18,83.564C279.428,78.841 274.076,74.976 268.819,70.937C263.653,66.788 257.832,63.747 252.311,60.203C253.954,47.962 254.769,35.911 255.096,23.334C240.851,16.164 225.659,11.411 210.293,7.997C204.158,18.308 198.548,29.472 193.662,40.388C187.868,39.42 182.047,39.061 176.219,38.992L176.219,38.984C176.178,38.984 176.14,38.992 176.106,38.992C176.07,38.992 176.03,38.984 175.994,38.984L175.994,38.992C170.155,39.061 164.338,39.42 158.543,40.388C153.66,29.473 148.054,18.308 141.91,7.997L141.91,7.998ZM28.45,235.798C28.473,241.073 28.54,246.852 28.54,248.003C28.54,299.841 94.3,324.757 176,325.044L176.201,325.044C257.902,324.757 323.641,299.841 323.641,248.003C323.641,246.831 323.713,241.076 323.737,235.798L274.673,240.53L272.981,264.755C272.778,267.675 270.456,269.999 267.536,270.208L209.391,274.357C209.249,274.367 209.107,274.372 208.967,274.372C206.078,274.372 203.585,272.25 203.159,269.349L199.825,246.738L152.382,246.738L149.048,269.349C148.6,272.392 145.88,274.581 142.815,274.357L84.67,270.208C81.751,269.999 79.428,267.675 79.225,264.755L77.535,240.53L28.451,235.798L28.45,235.798Z" style="fill:rgb(71,140,191);fill-rule:nonzero;"/>
        <path d="M98.723,138.248C80.563,138.248 65.832,152.964 65.832,171.127C65.832,189.302 80.562,204.025 98.723,204.025C116.892,204.025 131.619,189.302 131.619,171.127C131.619,152.964 116.892,138.248 98.723,138.248ZM253.483,138.248C235.311,138.248 220.585,152.964 220.585,171.127C220.585,189.302 235.311,204.025 253.483,204.025C271.642,204.025 286.37,189.302 286.37,171.127C286.37,152.964 271.642,138.248 253.483,138.248ZM176.096,157.488C170.248,157.488 165.508,161.802 165.508,167.111L165.508,197.394C165.508,202.707 170.248,207.017 176.096,207.017C181.944,207.017 186.696,202.707 186.696,197.394L186.696,167.111C186.696,161.802 181.945,157.488 176.096,157.488Z" style="fill:white;fill-rule:nonzero;"/>
        <path d="M101.87,151.248C89.811,151.248 80.036,161.028 80.036,173.084C80.036,185.139 89.811,194.91 101.87,194.91C113.935,194.91 123.706,185.139 123.706,173.084C123.706,161.028 113.935,151.248 101.87,151.248ZM250.33,151.248C238.274,151.248 228.506,161.028 228.506,173.084C228.506,185.139 238.275,194.91 250.33,194.91C262.398,194.91 272.164,185.139 272.164,173.084C272.164,161.028 262.398,151.248 250.33,151.248Z" style="fill:rgb(65,64,66);fill-rule:nonzero;"/>
    </g>
</svg>
